<svg width="247" height="91" viewBox="0 0 247 91" fill="none" xmlns="http://www.w3.org/2000/svg">
<path d="M65.2344 80.3535L41.0645 89.2305C39.1895 89.875 37.6367 90.1973 36.4062 90.1973H32.8027C24.4824 89.7871 17.3047 86.3887 11.2695 80.002C5.23438 73.6152 1.80664 65.7637 0.986328 56.4473C0.751953 53.9863 0.634766 51.6133 0.634766 49.3281C0.634766 46.2812 0.839844 43.3223 1.25 40.4512C1.95312 35.4707 3.88672 30.4902 7.05078 25.5098C8.57422 22.9316 11.1816 20.2363 14.873 17.4238C16.1621 16.5449 17.5977 15.7539 19.1797 15.0508C23.8672 13.293 28.5547 11.5352 33.2422 9.77734C37.9883 8.01953 42.7344 6.26172 47.4805 4.50391C48.4766 4.15234 49.4141 3.97656 50.293 3.97656H50.7324C54.4824 4.15234 59.0234 5.08984 64.3555 6.78906C64.8242 6.96484 65.1172 7.08203 65.2344 7.14062C66.5234 7.66797 68.1055 8.25391 69.9805 8.89844C70.7422 9.13281 71.4453 9.25 72.0898 9.25C73.0273 9.25 73.8477 8.98633 74.5508 8.45898C75.7812 7.4043 76.6602 6.52539 77.1875 5.82227C77.4805 5.41211 77.8613 5.20703 78.3301 5.20703C78.623 5.20703 78.916 5.26562 79.209 5.38281C80.498 5.85156 81.1426 6.4375 81.1426 7.14062V75.168C81.1426 78.9766 82.6074 81.4082 85.5371 82.4629C88.4668 83.459 89.9316 84.6895 89.9316 86.1543C89.9316 87.3848 89.3164 88 88.0859 88H66.7285C65.7324 88 65.2344 87.6191 65.2344 86.8574V80.3535ZM65.2344 20.4121C62.832 18.1855 59.668 16.1348 55.7422 14.2598C51.8164 12.3262 48.3301 11.3008 45.2832 11.1836H44.9316C43.7598 11.1836 42.5879 11.418 41.416 11.8867C39.3066 12.6484 37.1973 13.4395 35.0879 14.2598C33.0371 15.0215 30.957 15.7832 28.8477 16.5449C27.3828 17.1309 26.2109 17.8926 25.332 18.8301C21.6992 22.6973 19.2676 27.3848 18.0371 32.8926C17.041 37.0527 16.543 41.1836 16.543 45.2852C16.543 46.5742 16.6016 47.8926 16.7188 49.2402C17.3633 57.6777 19.6484 64.5332 23.5742 69.8066C27.5 75.2559 32.4219 78.8008 38.3398 80.4414C40.5664 81.0859 42.8223 81.4082 45.1074 81.4082C45.8105 81.4082 46.543 81.3789 47.3047 81.3203C48.5938 81.2031 50.1172 80.8223 51.875 80.1777C53.2227 79.709 55.332 78.9473 58.2031 77.8926C61.0742 76.7793 63.418 75.8711 65.2344 75.168V20.4121ZM130.098 12.3262C132.852 11.2715 135.312 10.334 137.48 9.51367C139.707 8.69336 141.816 7.93164 143.809 7.22852C149.199 5.35352 154.795 4.12305 160.596 3.53711C161.299 3.47852 162.031 3.44922 162.793 3.44922C167.715 3.44922 172.402 5.11914 176.855 8.45898C178.379 9.68945 179.609 10.9199 180.547 12.1504C183.184 11.1543 185.557 10.2754 187.666 9.51367C189.834 8.69336 191.885 7.93164 193.818 7.22852C199.209 5.35352 204.775 4.12305 210.518 3.53711C211.279 3.47852 212.041 3.44922 212.803 3.44922C217.666 3.44922 222.324 5.11914 226.777 8.45898C233.926 13.9082 237.5 25.5977 237.5 43.5273V75.168C237.5 78.9766 238.965 81.4082 241.895 82.4629C244.824 83.459 246.289 84.6895 246.289 86.1543C246.289 87.3848 245.674 88 244.443 88H223.086C222.148 88 221.68 87.6191 221.68 86.8574V43.5273C221.68 30.6953 219.014 21.6719 213.682 16.457C210.283 13.1172 206.123 11.4473 201.201 11.4473C198.389 11.4473 195.312 12.0039 191.973 13.1172C190.801 13.5273 189.365 14.0547 187.666 14.6992C186.025 15.2852 184.502 15.8418 183.096 16.3691C186.025 22.4043 187.49 31.457 187.49 43.5273V75.168C187.49 78.9766 188.955 81.4082 191.885 82.4629C194.814 83.459 196.279 84.6895 196.279 86.1543C196.279 87.3848 195.693 88 194.521 88H164.727C163.496 88 162.881 87.3848 162.881 86.1543C162.881 84.6895 164.346 83.459 167.275 82.4629C170.205 81.4082 171.67 78.9766 171.67 75.168V43.5273C171.67 30.6953 169.004 21.6719 163.672 16.457C160.273 13.1172 156.113 11.4473 151.191 11.4473C148.379 11.4473 145.303 12.0039 141.963 13.1172C139.912 13.8203 137.891 14.5527 135.898 15.3145C133.965 16.0762 132.031 16.8086 130.098 17.5117V75.168C130.098 78.9766 131.562 81.4082 134.492 82.4629C137.422 83.459 138.887 84.6895 138.887 86.1543C138.887 87.3848 138.301 88 137.129 88H107.334C106.104 88 105.488 87.3848 105.488 86.1543C105.488 84.6895 106.953 83.459 109.883 82.4629C112.812 81.4082 114.277 78.9766 114.277 75.168V18.918C114.277 15.2266 112.812 12.8535 109.883 11.7988C106.953 10.7441 105.488 9.45508 105.488 7.93164C105.488 6.70117 106.104 6.08594 107.334 6.08594C111.201 5.91016 115.01 5.32422 118.76 4.32812C122.568 3.27344 126.348 2.10156 130.098 0.8125V12.3262Z" fill="black"/>
</svg>
