<svg width="15" height="20" viewBox="0 0 15 20" fill="none" xmlns="http://www.w3.org/2000/svg">
<g id="fa-brands:figma" opacity="0.75" clip-path="url(#clip0_205_164)">
<path id="Vector" d="M0.545776 3.74187C0.545776 1.67531 2.2177 0 4.28013 0H10.6878C12.7502 0 14.4221 1.67531 14.4221 3.74187C14.4221 5.05047 13.7518 6.20219 12.7364 6.87098C13.7518 7.5398 14.4221 8.69148 14.4221 10.0001C14.4221 12.0667 12.7502 13.742 10.6878 13.742H10.6067C9.63983 13.742 8.75876 13.3738 8.09557 12.7697V16.2175C8.09557 18.3116 6.37994 20 4.30025 20C2.24297 20 0.545776 18.3298 0.545776 16.2581C0.545776 14.9496 1.2161 13.7979 2.23143 13.1291C1.21602 12.4603 0.545776 11.3086 0.545776 10.0001C0.545776 8.69148 1.21614 7.5398 2.2315 6.87098C1.21618 6.20219 0.545776 5.05047 0.545776 3.74187ZM6.87234 7.48387H4.28013C2.89325 7.48387 1.769 8.61043 1.769 10.0001C1.769 11.3844 2.8846 12.5076 4.26407 12.5162L4.28013 12.5162H6.87234V7.48387ZM8.09557 10.0001C8.09557 11.3897 9.21982 12.5163 10.6067 12.5163H10.6878C12.0747 12.5163 13.1989 11.3897 13.1989 10.0001C13.1989 8.61043 12.0747 7.48387 10.6878 7.48387H10.6067C9.21982 7.48387 8.09557 8.61043 8.09557 10.0001ZM4.28013 13.742L4.26407 13.742C2.8846 13.7506 1.769 14.8738 1.769 16.2581C1.769 17.6427 2.9083 18.7743 4.30025 18.7743C5.71465 18.7743 6.87234 17.6245 6.87234 16.2175V13.742H4.28013ZM4.28013 1.2257C2.89325 1.2257 1.769 2.35227 1.769 3.74187C1.769 5.13156 2.89329 6.25809 4.28013 6.25809H6.87234V1.22566L4.28013 1.2257ZM8.09557 6.25809H10.6878C12.0747 6.25809 13.1989 5.13156 13.1989 3.74187C13.1989 2.35223 12.0747 1.2257 10.6878 1.2257H8.09557V6.25809Z" fill="white"/>
</g>
<defs>
<clipPath id="clip0_205_164">
<rect width="14.9697" height="20" fill="white"/>
</clipPath>
</defs>
</svg>
