<svg width="21" height="20" viewBox="0 0 21 20" fill="none" xmlns="http://www.w3.org/2000/svg">
<g id="fa-brands:github" opacity="0.75" clip-path="url(#clip0_205_78)">
<path id="Vector" d="M7.27378 15.5234C7.27378 15.6016 7.18277 15.6641 7.06801 15.6641C6.93744 15.6758 6.84643 15.6133 6.84643 15.5234C6.84643 15.4453 6.93744 15.3828 7.05219 15.3828C7.1709 15.3711 7.27378 15.4336 7.27378 15.5234ZM6.04317 15.3477C6.01547 15.4258 6.09461 15.5156 6.21332 15.5391C6.3162 15.5781 6.43491 15.5391 6.45865 15.4609C6.48239 15.3828 6.40721 15.293 6.2885 15.2578C6.18562 15.2305 6.07087 15.2695 6.04317 15.3477ZM7.79213 15.2812C7.67738 15.3086 7.59824 15.3828 7.61011 15.4727C7.62198 15.5508 7.72487 15.6016 7.84357 15.5742C7.95832 15.5469 8.03746 15.4727 8.02559 15.3945C8.01372 15.3203 7.90688 15.2695 7.79213 15.2812ZM10.3958 0.3125C4.90753 0.3125 0.709229 4.42578 0.709229 9.84375C0.709229 14.1758 3.47117 17.8828 7.41622 19.1875C7.92271 19.2773 8.10077 18.9688 8.10077 18.7148C8.10077 18.4727 8.0889 17.1367 8.0889 16.3164C8.0889 16.3164 5.31905 16.9023 4.73738 15.1523C4.73738 15.1523 4.28629 14.0156 3.63736 13.7227C3.63736 13.7227 2.73122 13.1094 3.70067 13.1211C3.70067 13.1211 4.68594 13.1992 5.22804 14.1289C6.09461 15.6367 7.5468 15.2031 8.11264 14.9453C8.20365 14.3203 8.46085 13.8867 8.74575 13.6289C6.53383 13.3867 4.30212 13.0703 4.30212 9.3125C4.30212 8.23828 4.60285 7.69922 5.23596 7.01172C5.13308 6.75781 4.79674 5.71094 5.33884 4.35938C6.16583 4.10547 8.06912 5.41406 8.06912 5.41406C8.8605 5.19531 9.71124 5.08203 10.5541 5.08203C11.3969 5.08203 12.2476 5.19531 13.039 5.41406C13.039 5.41406 14.9423 4.10156 15.7693 4.35938C16.3114 5.71484 15.9751 6.75781 15.8722 7.01172C16.5053 7.70312 16.8931 8.24219 16.8931 9.3125C16.8931 13.082 14.5624 13.3828 12.3505 13.6289C12.7146 13.9375 13.0232 14.5234 13.0232 15.4414C13.0232 16.7578 13.0113 18.3867 13.0113 18.707C13.0113 18.9609 13.1933 19.2695 13.6959 19.1797C17.6528 17.8828 20.3356 14.1758 20.3356 9.84375C20.3356 4.42578 15.8841 0.3125 10.3958 0.3125ZM4.55536 13.7852C4.50392 13.8242 4.5158 13.9141 4.58306 13.9883C4.64637 14.0508 4.73738 14.0781 4.78882 14.0273C4.84026 13.9883 4.82839 13.8984 4.76113 13.8242C4.69781 13.7617 4.6068 13.7344 4.55536 13.7852ZM4.12802 13.4688C4.10032 13.5195 4.13989 13.582 4.21903 13.6211C4.28234 13.6602 4.36147 13.6484 4.38917 13.5938C4.41687 13.543 4.3773 13.4805 4.29816 13.4414C4.21903 13.418 4.15571 13.4297 4.12802 13.4688ZM5.41006 14.8594C5.34675 14.9102 5.37049 15.0273 5.4615 15.1016C5.55251 15.1914 5.66726 15.2031 5.7187 15.1406C5.77014 15.0898 5.7464 14.9727 5.66726 14.8984C5.58021 14.8086 5.4615 14.7969 5.41006 14.8594ZM4.95897 14.2852C4.89566 14.3242 4.89566 14.4258 4.95897 14.5156C5.02228 14.6055 5.12912 14.6445 5.18056 14.6055C5.24387 14.5547 5.24387 14.4531 5.18056 14.3633C5.12516 14.2734 5.02228 14.2344 4.95897 14.2852Z" fill="white"/>
</g>
<defs>
<clipPath id="clip0_205_78">
<rect width="19.6264" height="20" fill="white" transform="translate(0.709229)"/>
</clipPath>
</defs>
</svg>
