<svg width="21" height="24" viewBox="0 0 21 24" fill="none" xmlns="http://www.w3.org/2000/svg">
<g id="fa-brands:linkedin-in" opacity="0.75">
<path id="Vector" d="M4.70062 21H0.346875V6.97972H4.70062V21ZM2.52141 5.06722C1.12922 5.06722 0 3.9141 0 2.52191C9.96468e-09 1.85319 0.265647 1.21186 0.738503 0.739006C1.21136 0.266151 1.85269 0.00050354 2.52141 0.00050354C3.19012 0.00050354 3.83145 0.266151 4.30431 0.739006C4.77716 1.21186 5.04281 1.85319 5.04281 2.52191C5.04281 3.9141 3.91313 5.06722 2.52141 5.06722ZM20.9953 21H16.6509V14.175C16.6509 12.5485 16.6181 10.4625 14.3873 10.4625C12.1237 10.4625 11.7769 12.2297 11.7769 14.0578V21H7.42781V6.97972H11.6034V8.89222H11.6644C12.2456 7.79066 13.6655 6.62816 15.7838 6.62816C20.19 6.62816 21 9.52972 21 13.2985V21H20.9953Z" fill="white"/>
</g>
</svg>
